<svg width="103" height="29" viewBox="0 0 103 29" fill="none" xmlns="http://www.w3.org/2000/svg">
<g filter="url(#filter0_d_2_49)">
<path d="M98.6005 9.38607V7.72967H96.5438V5.15459L96.4747 5.17598L94.505 5.77864V7.72967H91.4556V6.64205C91.4263 6.23028 91.5456 5.82164 91.7917 5.49024C91.9103 5.3601 92.0564 5.25802 92.2194 5.1914C92.3824 5.12478 92.5582 5.09531 92.734 5.10511C93.0429 5.10923 93.3475 5.17849 93.6277 5.30837L93.7035 5.34225V3.59937L93.6679 3.58645C93.2981 3.47255 92.912 3.42103 92.5254 3.434C91.9611 3.4251 91.4038 3.55896 90.9051 3.82314C90.4367 4.07519 90.0507 4.4568 89.7934 4.92235C89.526 5.41723 89.3904 5.97262 89.3998 6.53507V7.72967H87.9676V9.38607H89.3998V16.3634H91.4556V9.38607H94.505V13.8186C94.505 15.6462 95.3662 16.5702 97.0654 16.5702C97.3589 16.5685 97.6514 16.5361 97.9381 16.4735C98.1583 16.4361 98.3722 16.3683 98.5738 16.272L98.601 16.2559V14.5844L98.5172 14.6397C98.3896 14.7204 98.2502 14.7806 98.1039 14.818C97.9722 14.8587 97.8357 14.8819 97.6979 14.8871C97.5376 14.9011 97.3762 14.8798 97.225 14.8247C97.0739 14.7697 96.9366 14.6821 96.8229 14.5683C96.6064 14.2422 96.508 13.8518 96.5438 13.462V9.38607H98.6005ZM83.3755 14.8884C83.0474 14.9055 82.7197 14.8483 82.4169 14.721C82.114 14.5937 81.8438 14.3997 81.6264 14.1533C81.1755 13.5589 80.9526 12.8226 80.9979 12.0779C80.9501 11.3159 81.1727 10.5614 81.6264 9.94727C81.8392 9.69913 82.1059 9.50287 82.4061 9.37347C82.7063 9.24408 83.0321 9.18496 83.3586 9.20064C83.6752 9.18543 83.9912 9.24164 84.2832 9.36509C84.5752 9.48855 84.8356 9.67609 85.0453 9.91384C85.4957 10.5225 85.7141 11.2718 85.6613 12.0271C85.7133 12.7851 85.5093 13.5386 85.0819 14.1667C84.8734 14.4116 84.6105 14.6043 84.3142 14.7295C84.0179 14.8546 83.6965 14.9096 83.3755 14.8884ZM83.4669 7.51839C82.8518 7.48456 82.2362 7.57714 81.6582 7.79042C81.0803 8.00371 80.5521 8.33316 80.1064 8.75846C79.6895 9.21375 79.3674 9.74752 79.1589 10.3286C78.9504 10.9097 78.8598 11.5265 78.8922 12.143C78.8627 12.7336 78.9524 13.3241 79.156 13.8792C79.3597 14.4344 79.673 14.9428 80.0774 15.3743C80.4988 15.7789 80.9982 16.0934 81.5452 16.2987C82.0921 16.5039 82.6752 16.5955 83.2587 16.568C83.8649 16.5978 84.4707 16.5014 85.0377 16.2851C85.6047 16.0687 86.1206 15.737 86.5528 15.311C86.9663 14.8601 87.2865 14.3319 87.4949 13.7568C87.7033 13.1816 87.7958 12.5709 87.767 11.9598C87.8318 10.7674 87.4224 9.59766 86.6282 8.70586C86.2122 8.29994 85.7163 7.98489 85.1721 7.7807C84.628 7.57651 84.0473 7.48764 83.4669 7.51973V7.51839ZM75.5772 7.51973C74.7223 7.48356 73.881 7.7435 73.1955 8.25566C72.9008 8.47943 72.6631 8.7697 72.5018 9.10279C72.3405 9.43588 72.2602 9.80236 72.2675 10.1724C72.2603 10.5389 72.3285 10.903 72.4676 11.2422C72.6058 11.5546 72.8163 11.8296 73.0819 12.0445C73.4647 12.3323 73.8845 12.5674 74.33 12.7434C74.6861 12.8833 75.0332 13.045 75.3695 13.2275C75.5464 13.3198 75.7022 13.4478 75.8272 13.6033C75.9188 13.7499 75.9631 13.921 75.9543 14.0936C75.9543 14.6731 75.5201 14.9557 74.6259 14.9557C74.2429 14.9466 73.8637 14.8772 73.5022 14.7502C73.0909 14.6158 72.7028 14.419 72.3513 14.1667L72.2657 14.1057V16.0852L72.2969 16.0999C72.6465 16.2526 73.012 16.3655 73.3868 16.4365C73.7693 16.5199 74.1592 16.5647 74.5506 16.5702C75.4486 16.6171 76.3358 16.3559 77.0651 15.8298C77.3647 15.5999 77.6057 15.3023 77.7684 14.9615C77.9311 14.6206 78.0109 14.2461 78.0012 13.8685C78.0159 13.3297 77.8372 12.8035 77.4975 12.3851C77.0217 11.891 76.4351 11.5174 75.7862 11.2952C75.3493 11.1489 74.9379 10.935 74.5671 10.6614C74.4826 10.5734 74.4171 10.4689 74.3747 10.3545C74.3324 10.2401 74.3141 10.1181 74.321 9.9963C74.3193 9.87615 74.3467 9.75737 74.4011 9.65021C74.4555 9.54305 74.5351 9.45071 74.6331 9.38117C74.8892 9.20397 75.1971 9.11708 75.5081 9.13423C75.8613 9.13591 76.2123 9.18983 76.5498 9.29425C76.8725 9.38833 77.1792 9.53048 77.4596 9.71593L77.5434 9.77343V7.89817L77.5113 7.88435C77.2135 7.76571 76.9039 7.67934 76.5877 7.62671C76.254 7.56132 75.915 7.52626 75.5749 7.52196L75.5772 7.51973ZM66.9083 14.8884C66.5802 14.9055 66.2525 14.8483 65.9496 14.721C65.6467 14.5937 65.3765 14.3997 65.1591 14.1533C64.7089 13.5595 64.4861 12.8241 64.5311 12.0802C64.4832 11.3181 64.7058 10.5636 65.1596 9.9495C65.3723 9.70127 65.639 9.50496 65.9392 9.37556C66.2394 9.24616 66.5652 9.18709 66.8918 9.20287C67.2084 9.18766 67.5244 9.24387 67.8164 9.36732C68.1083 9.49078 68.3688 9.67832 68.5785 9.91607C69.0289 10.5247 69.2473 11.2741 69.1945 12.0294C69.2465 12.7873 69.0424 13.5408 68.615 14.169C68.4066 14.4139 68.1437 14.6066 67.8474 14.7318C67.5511 14.8569 67.2296 14.911 66.9087 14.8897L66.9083 14.8884ZM67.0005 7.52062C66.3854 7.48674 65.7698 7.57929 65.1918 7.79258C64.6138 8.00586 64.0857 8.33535 63.64 8.76069C63.223 9.21594 62.9008 9.74969 62.6923 10.3308C62.4837 10.9119 62.393 11.5287 62.4254 12.1453C62.3958 12.7359 62.4856 13.3264 62.6893 13.8816C62.893 14.4367 63.2065 14.9451 63.6111 15.3765C64.0324 15.7811 64.5318 16.0957 65.0788 16.3009C65.6258 16.5062 66.2088 16.5978 66.7924 16.5702C67.3985 16.6 68.0043 16.5036 68.5713 16.2872C69.1383 16.0709 69.6542 15.7392 70.0864 15.3132C70.4999 14.8624 70.8201 14.3341 71.0285 13.759C71.2369 13.1838 71.3294 12.5731 71.3007 11.9621C71.3654 10.7695 70.9558 9.59976 70.1613 8.70809C69.7454 8.30222 69.2496 7.9872 68.7055 7.78302C68.1614 7.57883 67.5808 7.48993 67.0005 7.52196V7.52062ZM59.3047 9.22516V7.72967H57.2739V16.3634H59.3047V11.9465C59.2756 11.297 59.4529 10.6551 59.8111 10.1126C59.9547 9.89633 60.1503 9.7195 60.3799 9.59833C60.6096 9.47716 60.8659 9.41553 61.1256 9.41906C61.3321 9.4222 61.5374 9.45217 61.7362 9.50821C61.9036 9.5454 62.0636 9.61017 62.2096 9.69988L62.2952 9.76184V7.71496L62.2622 7.7007C62.0074 7.60964 61.7374 7.56862 61.467 7.5799C60.9707 7.57502 60.489 7.74765 60.1088 8.06666C59.7529 8.37925 59.4837 8.77845 59.3274 9.2256L59.3047 9.22516ZM53.637 7.52151C52.7765 7.50418 51.9261 7.70865 51.1676 8.11525C50.47 8.49909 49.9029 9.08235 49.5388 9.79037C49.155 10.5602 48.9631 11.4114 48.9794 12.2714C48.9693 13.0469 49.1564 13.8123 49.5232 14.4957C49.8713 15.1434 50.3989 15.6769 51.0427 16.0322C51.7245 16.3991 52.4889 16.585 53.263 16.572C54.1164 16.5994 54.962 16.4015 55.7146 15.9983L55.7414 15.9831V14.1221L55.6558 14.1846C55.3519 14.405 55.0171 14.5794 54.6622 14.7021C54.3505 14.8184 54.0217 14.8821 53.6892 14.8906C53.338 14.9077 52.9872 14.8506 52.6596 14.7229C52.332 14.5953 52.035 14.4 51.788 14.1498C51.2958 13.5829 51.0443 12.8462 51.0869 12.0967C51.0495 11.3262 51.3115 10.571 51.8179 9.98917C52.0608 9.72962 52.3564 9.52514 52.685 9.3895C53.0135 9.25387 53.3674 9.19023 53.7226 9.20287C54.4225 9.21386 55.1002 9.44968 55.6558 9.87551L55.7409 9.93746V7.97617L55.7133 7.96057C55.4176 7.80861 55.1009 7.70149 54.7737 7.64275C54.4003 7.5637 54.0199 7.52292 53.6383 7.52106L53.637 7.52151ZM47.5815 7.72923H45.5507V16.3634H47.5815V7.72923ZM46.587 4.05136C46.2653 4.04625 45.9544 4.16812 45.7218 4.39057C45.6048 4.49795 45.512 4.629 45.4495 4.77502C45.387 4.92105 45.3563 5.0787 45.3595 5.2375C45.3559 5.39338 45.3859 5.54821 45.4475 5.69149C45.509 5.83476 45.6006 5.96314 45.716 6.06792C45.9517 6.28704 46.2635 6.40569 46.5853 6.39867C46.9079 6.4051 47.2205 6.28678 47.458 6.06837C47.575 5.96434 47.6681 5.8362 47.7308 5.69276C47.7935 5.54933 47.8244 5.39401 47.8213 5.2375C47.823 5.08111 47.7924 4.92606 47.7316 4.78198C47.6708 4.6379 47.581 4.50785 47.4678 4.39993C47.3517 4.28538 47.2136 4.19546 47.0619 4.13556C46.9102 4.07566 46.7479 4.04702 46.5848 4.05136H46.587ZM41.5176 7.09225V16.3638H43.5903V4.31613H40.7219L37.0757 13.2645L33.5373 4.31613H30.5508V16.3629H32.4987V7.09136H32.5656L36.3018 16.3629H37.7728L41.4511 7.09136L41.5176 7.09225Z" fill="#718087"/>
<path d="M13.9761 9.84376H4.42239V0.290039H13.9761V9.84376Z" fill="#718087"/>
<path d="M24.5247 9.84376H14.971V0.290039H24.5247V9.84376Z" fill="#718087"/>
<path d="M13.9761 20.3959H4.42239V10.8422H13.9761V20.3959Z" fill="#718087"/>
<path d="M24.5247 20.3959H14.971V10.8422H24.5247V20.3959Z" fill="#718087"/>
</g>
<defs>
<filter id="filter0_d_2_49" x="0.422394" y="0.290039" width="102.179" height="28.1058" filterUnits="userSpaceOnUse" color-interpolation-filters="sRGB">
<feFlood flood-opacity="0" result="BackgroundImageFix"/>
<feColorMatrix in="SourceAlpha" type="matrix" values="0 0 0 0 0 0 0 0 0 0 0 0 0 0 0 0 0 0 127 0" result="hardAlpha"/>
<feOffset dy="4"/>
<feGaussianBlur stdDeviation="2"/>
<feComposite in2="hardAlpha" operator="out"/>
<feColorMatrix type="matrix" values="0 0 0 0 0 0 0 0 0 0 0 0 0 0 0 0 0 0 0.25 0"/>
<feBlend mode="normal" in2="BackgroundImageFix" result="effect1_dropShadow_2_49"/>
<feBlend mode="normal" in="SourceGraphic" in2="effect1_dropShadow_2_49" result="shape"/>
</filter>
</defs>
</svg>
