<svg width="94" height="35" viewBox="0 0 94 35" fill="none" xmlns="http://www.w3.org/2000/svg">
<g filter="url(#filter0_d_2_51)">
<path d="M49.3987 6.70527C49.3987 7.66702 48.6283 8.44143 47.6723 8.44143C46.7162 8.44143 45.9464 7.66702 45.9464 6.70527C45.9464 5.74353 46.69 4.96911 47.6723 4.96911C48.6554 4.99579 49.3987 5.77048 49.3987 6.70527ZM42.2819 10.2048V10.6323C42.2819 10.6323 41.4591 9.56329 39.7064 9.56329C36.8123 9.56329 34.5548 11.7806 34.5548 14.8524C34.5548 17.8977 36.7858 20.1414 39.7064 20.1414C41.4856 20.1414 42.2819 19.0463 42.2819 19.0463V19.5002C42.2819 19.7139 42.4416 19.8738 42.6538 19.8738H44.8044V9.82961H42.6538C42.4416 9.83041 42.2819 10.0177 42.2819 10.2048ZM42.2819 16.6422C41.884 17.23 41.0871 17.7376 40.1314 17.7376C38.432 17.7376 37.1306 16.6691 37.1306 14.8524C37.1306 13.0359 38.432 11.9674 40.1314 11.9674C41.0609 11.9674 41.9105 12.5016 42.2819 13.0626V16.6422ZM46.3979 9.83041H48.9469V19.8746H46.3979V9.83041ZM84.4764 9.56303C82.7238 9.56303 81.9004 10.632 81.9004 10.632V4.9958H79.3514V19.8746H81.5024C81.7149 19.8746 81.8738 19.6875 81.8738 19.5004V19.0465C81.8738 19.0465 82.6972 20.1417 84.4494 20.1417C87.344 20.1417 89.6009 17.8985 89.6009 14.8532C89.6009 11.8078 87.344 9.56303 84.4764 9.56303ZM84.0515 17.7106C83.0686 17.7106 82.2988 17.2036 81.9004 16.6155V13.0359C82.2988 12.5016 83.1485 11.9407 84.0515 11.9407C85.7508 11.9407 87.0519 13.0092 87.0519 14.8257C87.0519 16.6422 85.7511 17.7106 84.0515 17.7106ZM78.0239 13.9178V19.9013H75.4744V14.2114C75.4744 12.5555 74.9433 11.8873 73.5103 11.8873C72.7405 11.8873 71.9436 12.2881 71.4383 12.876V19.8748H68.8898V9.83068H70.9072C71.1197 9.83068 71.2791 10.0177 71.2791 10.2048V10.6323C72.0227 9.85736 73.005 9.56329 73.9873 9.56329C75.1028 9.56329 76.0323 9.88432 76.7758 10.5253C77.6783 11.2733 78.0239 12.2348 78.0239 13.9178ZM62.7018 9.56303C60.9497 9.56303 60.1263 10.632 60.1263 10.632V4.9958H57.5773V19.8746H59.7278C59.9403 19.8746 60.0997 19.6875 60.0997 19.5004V19.0465C60.0997 19.0465 60.9231 20.1417 62.6753 20.1417C65.5699 20.1417 67.8269 17.8985 67.8269 14.8532C67.8534 11.8075 65.5965 9.56303 62.7018 9.56303ZM62.2768 17.7106C61.2945 17.7106 60.5247 17.2036 60.1263 16.6155V13.0359C60.5247 12.5016 61.3744 11.9407 62.2768 11.9407C63.9767 11.9407 65.2776 13.0092 65.2776 14.8257C65.2776 16.6422 63.9767 17.7106 62.2768 17.7106ZM55.3731 9.56303C56.1429 9.56303 56.5414 9.69698 56.5414 9.69698V12.0741C56.5414 12.0741 54.4171 11.3528 53.0897 12.8758V19.901H50.5401V9.83041H52.6912C52.9037 9.83041 53.0626 10.0175 53.0626 10.2045V10.632C53.5411 10.0708 54.5768 9.56303 55.3731 9.56303ZM28.8992 18.9662C28.7666 18.6457 28.6337 18.2985 28.501 18.0045C28.2883 17.5238 28.0758 17.0694 27.8904 16.6422L27.8638 16.6155C26.0313 12.6084 24.0667 8.54844 21.9952 4.54188L21.9156 4.38123C21.6978 3.96559 21.4854 3.54704 21.2787 3.12568C21.0129 2.64454 20.7476 2.13751 20.3227 1.65637C19.473 0.587882 18.2514 0 16.9505 0C15.6226 0 14.4278 0.587885 13.5519 1.60273C13.1534 2.08334 12.8611 2.5909 12.5958 3.07204C12.3886 3.49314 12.1763 3.91169 11.9589 4.32759L11.8791 4.48824C9.83434 8.4948 7.84294 12.555 6.0107 16.5618L5.98392 16.6149C5.79823 17.043 5.58547 17.4969 5.37299 17.9772C5.24036 18.2713 5.10772 18.5918 4.97508 18.939C4.6297 19.9271 4.52332 20.8622 4.65649 21.8242C4.94855 23.8278 6.27597 25.51 8.10848 26.2585C8.79898 26.5526 9.51601 26.686 10.2593 26.686C10.4718 26.686 10.7371 26.6594 10.9498 26.6324C11.8263 26.5257 12.729 26.2321 13.6055 25.7246C14.6941 25.11 15.7298 24.2288 16.898 22.9466C18.0663 24.2288 19.1284 25.11 20.1906 25.7246C21.0673 26.2321 21.9698 26.5257 22.8459 26.6324C23.0584 26.6596 23.3242 26.686 23.5367 26.686C24.2803 26.686 25.0236 26.5526 25.6873 26.2585C27.5463 25.51 28.8472 23.8011 29.1395 21.8242C29.3504 20.8894 29.2443 19.9549 28.8992 18.9662ZM16.9237 20.3552C15.4897 18.5387 14.5602 16.8292 14.2418 15.3871C14.1092 14.7726 14.0824 14.2383 14.1623 13.7575C14.215 13.3299 14.3747 12.9558 14.5872 12.6353C15.0918 11.9145 15.9414 11.4601 16.924 11.4601C17.9068 11.4601 18.783 11.8876 19.2611 12.6353C19.4735 12.9558 19.6327 13.3302 19.6863 13.7575C19.7656 14.2386 19.7391 14.7993 19.6064 15.3871C19.2868 16.8025 18.3573 18.5123 16.9237 20.3552ZM27.5182 21.6107C27.3325 22.9997 26.403 24.2022 25.1021 24.7364C24.4649 25.0033 23.7741 25.0836 23.0842 25.0033C22.4205 24.9229 21.7562 24.7092 21.0662 24.3089C20.1102 23.7741 19.1544 22.9466 18.039 21.7175C19.7913 19.5541 20.8535 17.577 21.2519 15.8144C21.4379 14.9861 21.4647 14.2383 21.3846 13.5434C21.2787 12.8758 21.0394 12.2612 20.6678 11.7269C19.8441 10.5245 18.4631 9.83041 16.9235 9.83041C15.3838 9.83041 14.0028 10.5517 13.1797 11.7269C12.808 12.2612 12.5688 12.8758 12.4627 13.5434C12.3565 14.2383 12.3828 15.0127 12.5953 15.8144C12.9935 17.577 14.0822 19.5805 15.808 21.7442C14.7193 22.973 13.7368 23.8013 12.7807 24.3356C12.0902 24.7364 11.4268 24.9502 10.7631 25.0299C10.0463 25.1103 9.35553 25.0033 8.74487 24.7631C7.44397 24.2288 6.51446 23.0264 6.32877 21.6374C6.24919 20.9697 6.30197 20.3021 6.56778 19.5541C6.64709 19.2867 6.78026 19.0198 6.9129 18.6993C7.09885 18.2718 7.3108 17.8174 7.52355 17.3635L7.55035 17.3104C9.38232 13.3299 11.3472 9.26975 13.3919 5.31656L13.4715 5.15591C13.6842 4.75563 13.8967 4.32813 14.1089 3.92731C14.3214 3.49981 14.5602 3.09899 14.8525 2.75154C15.4101 2.11109 16.1534 1.76338 16.9768 1.76338C17.8002 1.76338 18.5435 2.11109 19.1011 2.75154C19.3934 3.09979 19.6322 3.50061 19.8447 3.92731C20.0574 4.32813 20.2699 4.75563 20.4818 5.15591L20.5617 5.31656C22.5752 9.28617 24.514 13.2937 26.377 17.337V17.3637C26.5897 17.7918 26.7754 18.2721 26.9879 18.7001C27.1206 19.0201 27.2535 19.287 27.333 19.5543C27.545 20.2482 27.6246 20.9164 27.5182 21.6107Z" fill="#718087"/>
</g>
<defs>
<filter id="filter0_d_2_51" x="0.600952" y="0" width="93" height="34.686" filterUnits="userSpaceOnUse" color-interpolation-filters="sRGB">
<feFlood flood-opacity="0" result="BackgroundImageFix"/>
<feColorMatrix in="SourceAlpha" type="matrix" values="0 0 0 0 0 0 0 0 0 0 0 0 0 0 0 0 0 0 127 0" result="hardAlpha"/>
<feOffset dy="4"/>
<feGaussianBlur stdDeviation="2"/>
<feComposite in2="hardAlpha" operator="out"/>
<feColorMatrix type="matrix" values="0 0 0 0 0 0 0 0 0 0 0 0 0 0 0 0 0 0 0.25 0"/>
<feBlend mode="normal" in2="BackgroundImageFix" result="effect1_dropShadow_2_51"/>
<feBlend mode="normal" in="SourceGraphic" in2="effect1_dropShadow_2_51" result="shape"/>
</filter>
</defs>
</svg>
